<?xml version="1.0" encoding="utf-8"?>
<!-- Generator: Adobe Illustrator 24.1.0, SVG Export Plug-In . SVG Version: 6.00 Build 0)  -->
<svg version="1.0" id="Layer_1" xmlns="http://www.w3.org/2000/svg" xmlns:xlink="http://www.w3.org/1999/xlink" x="0px" y="0px"
	 viewBox="0 0 155.8 156" style="enable-background:new 0 0 155.8 156;" xml:space="preserve">
<style type="text/css">
	.st0{fill:#307DB0;}
	.st1{fill:#EB7FBF;}
</style>
<path class="st0" d="M77.9,0C68,0,58.5,1.9,49.8,5.2H106C97.3,1.9,87.8,0,77.9,0z"/>
<path class="st0" d="M29.5,16.8h96.8c-2.4-1.9-4.9-3.6-7.5-5.2H37C34.4,13.2,31.9,15,29.5,16.8z"/>
<path class="st0" d="M17.7,28.4h120.5c-1.5-1.8-3.1-3.6-4.7-5.2h-111C20.8,24.9,19.2,26.6,17.7,28.4z"/>
<path class="st0" d="M9.8,40h136.3c-1-1.8-2.1-3.5-3.2-5.2H13C11.8,36.5,10.8,38.2,9.8,40z"/>
<path class="st0" d="M4.5,51.6h146.8c-0.6-1.8-1.4-3.5-2.1-5.2H6.6C5.9,48.1,5.1,49.9,4.5,51.6z"/>
<path class="st0" d="M1.3,63.2h153.2c-0.3-1.8-0.7-3.5-1.2-5.2H2.5C2.1,59.7,1.7,61.5,1.3,63.2z"/>
<path class="st0" d="M0,74.8h155.8c-0.1-1.8-0.2-3.5-0.4-5.2H0.4C0.2,71.3,0.1,73.1,0,74.8z"/>
<path class="st0" d="M0.4,86.4h155.1c0.2-1.7,0.3-3.5,0.4-5.2H0C0.1,82.9,0.2,84.7,0.4,86.4z"/>
<path class="st0" d="M2.5,98h150.8c0.5-1.7,0.9-3.5,1.2-5.2H1.3C1.7,94.5,2.1,96.3,2.5,98z"/>
<path class="st0" d="M6.6,109.6h142.6c0.8-1.7,1.5-3.5,2.1-5.2H4.5C5.1,106.1,5.9,107.9,6.6,109.6z"/>
<path class="st0" d="M13,121.2h129.9c1.1-1.7,2.2-3.5,3.2-5.2H9.8C10.8,117.8,11.8,119.5,13,121.2z"/>
<path class="st0" d="M22.4,132.8h111c1.7-1.7,3.2-3.4,4.7-5.2H17.7C19.2,129.4,20.8,131.1,22.4,132.8z"/>
<path class="st0" d="M37,144.4h81.8c2.6-1.6,5.1-3.4,7.5-5.2H29.5C31.9,141,34.4,142.8,37,144.4z"/>
<path class="st0" d="M77.9,156c9.9,0,19.4-1.9,28.1-5.2H49.8C58.5,154.1,68,156,77.9,156z"/>
</svg>
