<?xml version="1.0" encoding="UTF-8" standalone="no"?>
<svg
   xmlns:dc="http://purl.org/dc/elements/1.1/"
   xmlns:cc="http://creativecommons.org/ns#"
   xmlns:rdf="http://www.w3.org/1999/02/22-rdf-syntax-ns#"
   xmlns:svg="http://www.w3.org/2000/svg"
   xmlns="http://www.w3.org/2000/svg"
   xmlns:sodipodi="http://sodipodi.sourceforge.net/DTD/sodipodi-0.dtd"
   xmlns:inkscape="http://www.inkscape.org/namespaces/inkscape"
   width="11.024mm"
   height="13.229mm"
   version="1.1"
   viewBox="0 0 11.024 13.229"
   id="svg14"
   sodipodi:docname="primaryIconPin.svg"
   inkscape:version="1.0.1 (3bc2e813f5, 2020-09-07)">
  <metadata
     id="metadata20">
    <rdf:RDF>
      <cc:Work
         rdf:about="">
        <dc:format>image/svg+xml</dc:format>
        <dc:type
           rdf:resource="http://purl.org/dc/dcmitype/StillImage" />
      </cc:Work>
    </rdf:RDF>
  </metadata>
  <defs
     id="defs18" />
  <sodipodi:namedview
     pagecolor="#ffffff"
     bordercolor="#666666"
     borderopacity="1"
     objecttolerance="10"
     gridtolerance="10"
     guidetolerance="10"
     inkscape:pageopacity="0"
     inkscape:pageshadow="2"
     inkscape:window-width="1920"
     inkscape:window-height="2103"
     id="namedview16"
     showgrid="false"
     inkscape:zoom="18.640235"
     inkscape:cx="20.832756"
     inkscape:cy="24.999685"
     inkscape:window-x="1920"
     inkscape:window-y="27"
     inkscape:window-maximized="0"
     inkscape:current-layer="g4" />
  <g
     transform="translate(-176.35 -162.03)"
     id="g12">
    <g
       transform="matrix(.75 0 0 .75 44.087 40.506)"
       id="g10">
      <g
         transform="matrix(.35278 0 0 .35278 175.64 162.03)"
         id="g4">
        <path
           d="m22.833 0c-11.506 0-20.833 9.1562-20.833 20.448 0 11.469 9.1146 19.31 20.833 29.552 11.719-10.242 20.833-18.083 20.833-29.552 0-11.292-9.3292-20.448-20.833-20.448z"
           fill="#ff7676"
           id="path2"
           style="fill:#ff7676;fill-opacity:1" />
      </g>
      <g
         transform="matrix(.35278 0 0 .35278 181.64 167.32)"
         id="g8">
        <path
           d="m6 0c0.39397 0 0.78415 0.038429 1.1705 0.11529 0.38639 0.076859 0.76158 0.19067 1.1256 0.34143 0.36398 0.15076 0.70975 0.33558 1.0373 0.55446 0.32757 0.21888 0.63064 0.4676 0.90922 0.74618 0.27857 0.27858 0.5273 0.58165 0.74618 0.90922 0.21888 0.32757 0.4037 0.67334 0.55446 1.0373 0.15076 0.36398 0.26458 0.73916 0.34143 1.1256 0.076859 0.3864 0.11529 0.77658 0.11529 1.1705-1e-6 0.39397-0.03843 0.78415-0.11529 1.1705-0.07686 0.38639-0.19067 0.76158-0.34143 1.1256-0.15076 0.36398-0.33558 0.70975-0.55446 1.0373-0.21888 0.32757-0.4676 0.63064-0.74618 0.90922-0.27858 0.27857-0.58165 0.5273-0.90922 0.74618-0.32757 0.21888-0.67334 0.4037-1.0373 0.55446-0.36398 0.15076-0.73916 0.26458-1.1256 0.34143-0.3864 0.076859-0.77658 0.11529-1.1705 0.11529-0.39397-1e-6 -0.78415-0.038431-1.1705-0.11529-0.3864-0.076858-0.76158-0.19067-1.1256-0.34143-0.36398-0.15076-0.70975-0.33558-1.0373-0.55446-0.32757-0.21888-0.63064-0.4676-0.90922-0.74618-0.27858-0.27858-0.5273-0.58165-0.74618-0.90922-0.21888-0.32757-0.4037-0.67334-0.55446-1.0373-0.15076-0.36398-0.26458-0.73916-0.34143-1.1256-0.076859-0.3864-0.11529-0.77658-0.11529-1.1705 0-0.39397 0.038429-0.78415 0.11529-1.1705 0.076859-0.3864 0.19067-0.76158 0.34143-1.1256 0.15076-0.36398 0.33558-0.70975 0.55446-1.0373 0.21888-0.32757 0.4676-0.63064 0.74618-0.90922 0.27858-0.27858 0.58165-0.5273 0.90922-0.74618 0.32757-0.21888 0.67334-0.4037 1.0373-0.55446 0.36398-0.15076 0.73916-0.26458 1.1256-0.34143 0.3864-0.076859 0.77658-0.11529 1.1705-0.11529z"
           id="path6" />
      </g>
    </g>
  </g>
</svg>
