<?xml version="1.0" encoding="utf-8"?>
<!-- Generator: Adobe Illustrator 24.1.0, SVG Export Plug-In . SVG Version: 6.00 Build 0)  -->
<svg version="1.0" id="Layer_1" xmlns="http://www.w3.org/2000/svg" xmlns:xlink="http://www.w3.org/1999/xlink" x="0px" y="0px"
	 viewBox="0 0 304.6 14" style="enable-background:new 0 0 304.6 14;" xml:space="preserve">
<style type="text/css">
	.st0{fill:#307DB0;}
	.st1{fill:#EB7FBF;}
</style>
<g id="Path_104">
	<polygon class="st0" points="302.5,14.1 292.5,4.2 282.5,14 272.4,4.2 262.4,14 252.4,4.2 242.4,14 232.4,4.2 222.4,14 212.4,4.2 
		202.4,14 192.3,4.2 182.3,14 172.3,4.2 162.3,14 152.3,4.2 142.3,14 132.3,4.2 122.3,14 112.3,4.2 102.2,14 92.2,4.2 82.2,14 
		72.2,4.2 62.2,14 52.2,4.2 42.2,14 32.2,4.2 22.1,14 12.1,4.2 2.1,14.1 0,11.9 12.1,0 22.1,9.8 32.2,0 42.2,9.8 52.2,0 62.2,9.8 
		72.2,0 82.2,9.8 92.2,0 102.2,9.8 112.3,0 122.3,9.8 132.3,0 142.3,9.8 152.3,0 162.3,9.8 172.3,0 182.3,9.8 192.3,0 202.4,9.8 
		212.4,0 222.4,9.8 232.4,0 242.4,9.8 252.4,0 262.4,9.8 272.4,0 282.5,9.8 292.5,0 304.6,11.9 	"/>
</g>
</svg>
