<svg width="268.9mm" height="7.8085mm" version="1.1" viewBox="0 0 268.9 7.8085" xmlns="http://www.w3.org/2000/svg">
 <g transform="translate(434.06 87.641)">
  <path d="m-432.94-80.948 5.6742-5.5777 5.6732 5.5777 5.6742-5.5777 5.6742 5.5777 5.6732-5.5777 5.6742 5.5777 5.6742-5.5777 5.6732 5.5777 5.6742-5.5777 5.6732 5.5777 5.6742-5.5777 5.6742 5.5777 5.6732-5.5777 5.6742 5.5777 5.6742-5.5777 5.6732 5.5777 5.6742-5.5777 5.6742 5.5777 5.6732-5.5777 5.6742 5.5777 5.6742-5.5777 5.6732 5.5777 5.6742-5.5777 5.6732 5.5777 5.6742-5.5777 5.6742 5.5777 5.6732-5.5777 5.6742 5.5777 5.6742-5.5777 5.6732 5.5777 5.6742-5.5777 5.6742 5.5777 5.6732-5.5777 5.6742 5.5777 5.6742-5.5777 5.6732 5.5777 5.6742-5.5777 5.6742 5.5777 5.6732-5.5777 5.6742 5.5777 5.6732-5.5777 5.6742 5.5777 5.6742-5.5777 5.6732 5.5777 5.6742-5.5777 5.6742 5.5777 5.6732-5.5777" fill="none" stroke="#307DB0" stroke-linecap="square" stroke-width="1.5775"/>
 </g>
</svg>
