<?xml version="1.0" encoding="utf-8"?>
<!-- Generator: Adobe Illustrator 24.1.0, SVG Export Plug-In . SVG Version: 6.00 Build 0)  -->
<svg version="1.0" id="Layer_1" xmlns="http://www.w3.org/2000/svg" xmlns:xlink="http://www.w3.org/1999/xlink" x="0px" y="0px"
	 viewBox="0 0 319.1 29.5" style="enable-background:new 0 0 319.1 29.5;" xml:space="preserve">
<style type="text/css">
	.st0{fill:#307DB0;}
	.st1{fill:#EB7FBF;}
</style>
<g id="Path_27">
	<polygon class="st0" points="315,29.6 292.7,8.3 270.5,29.5 248.3,8.3 226.1,29.5 204,8.3 181.8,29.5 159.6,8.3 137.4,29.5 
		115.2,8.3 93,29.5 70.8,8.3 48.6,29.5 26.4,8.3 4.1,29.6 0,25.3 26.4,0 48.6,21.2 70.8,0 93,21.2 115.2,0 137.4,21.2 159.6,0 
		181.8,21.2 204,0 226.1,21.2 248.3,0 270.5,21.2 292.7,0 319.1,25.3 	"/>
</g>
</svg>
