<?xml version="1.0" encoding="UTF-8" standalone="no"?>
<svg
   xmlns:dc="http://purl.org/dc/elements/1.1/"
   xmlns:cc="http://creativecommons.org/ns#"
   xmlns:rdf="http://www.w3.org/1999/02/22-rdf-syntax-ns#"
   xmlns:svg="http://www.w3.org/2000/svg"
   xmlns="http://www.w3.org/2000/svg"
   xmlns:sodipodi="http://sodipodi.sourceforge.net/DTD/sodipodi-0.dtd"
   xmlns:inkscape="http://www.inkscape.org/namespaces/inkscape"
   width="184.96mm"
   height="7.8486mm"
   version="1.1"
   viewBox="0 0 184.96 7.8486"
   id="svg6"
   sodipodi:docname="szlaczek-medium-poziom-lg.svg"
   inkscape:version="1.0.1 (3bc2e813f5, 2020-09-07)">
  <metadata
     id="metadata12">
    <rdf:RDF>
      <cc:Work
         rdf:about="">
        <dc:format>image/svg+xml</dc:format>
        <dc:type
           rdf:resource="http://purl.org/dc/dcmitype/StillImage" />
      </cc:Work>
    </rdf:RDF>
  </metadata>
  <defs
     id="defs10" />
  <sodipodi:namedview
     pagecolor="#ffffff"
     bordercolor="#666666"
     borderopacity="1"
     objecttolerance="10"
     gridtolerance="10"
     guidetolerance="10"
     inkscape:pageopacity="0"
     inkscape:pageshadow="2"
     inkscape:window-width="2559"
     inkscape:window-height="1198"
     id="namedview8"
     showgrid="false"
     inkscape:zoom="2.2172586"
     inkscape:cx="263.38831"
     inkscape:cy="14.832"
     inkscape:window-x="2491"
     inkscape:window-y="184"
     inkscape:window-maximized="0"
     inkscape:current-layer="g4" />
  <g
     transform="translate(120.45 -35.385)"
     id="g4">
    <path
       d="m-119.33 42.111 5.7092-5.6131 5.7102 5.6131 5.7102-5.6131 5.7092 5.6131 5.7102-5.6131 5.7102 5.6131 5.7092-5.6131 5.7102 5.6131 5.7102-5.6131 5.7092 5.6131 5.7102-5.6131 5.7092 5.6131 5.7102-5.6131 5.7102 5.6131 5.7092-5.6131 5.7102 5.6131 5.7102-5.6131 5.7092 5.6131 5.7102-5.6131 5.7103 5.6131 5.7092-5.6131 5.7102 5.6131 5.7102-5.6131 5.7092 5.6131 5.7102-5.6131 5.7092 5.6131 5.7102-5.6131 5.7102 5.6131 5.7092-5.6131 5.7102 5.6131 5.7102-5.6131 5.7092 5.6131"
       fill="none"
       stroke="#0057ff"
       stroke-linecap="square"
       stroke-width="1.5875"
       id="path2"
       style="stroke:#307db0;stroke-opacity:1" />
  </g>
</svg>
