<?xml version="1.0" encoding="utf-8"?>
<!-- Generator: Adobe Illustrator 24.1.0, SVG Export Plug-In . SVG Version: 6.00 Build 0)  -->
<svg version="1.0" id="Layer_1" xmlns="http://www.w3.org/2000/svg" xmlns:xlink="http://www.w3.org/1999/xlink" x="0px" y="0px"
	 viewBox="0 0 1346.5 29.6" style="enable-background:new 0 0 1346.5 29.6;" xml:space="preserve">
<style type="text/css">
	.st0{fill:#307DB0;}
	.st1{fill:#EB7FBF;}
</style>
<g id="Path_69">
	<polygon class="st0" points="1342.3,29.7 1320.7,8.4 1299.1,29.6 1277.5,8.4 1255.9,29.6 1234.3,8.4 1212.8,29.6 1191.2,8.4 
		1169.6,29.6 1148,8.4 1126.4,29.6 1104.9,8.4 1083.3,29.6 1061.7,8.4 1040.1,29.6 1018.5,8.4 997,29.6 975.4,8.4 953.8,29.6 
		932.2,8.4 910.6,29.6 889,8.4 867.5,29.6 845.9,8.4 824.3,29.6 802.7,8.4 781.1,29.6 759.6,8.4 738,29.6 716.4,8.4 694.8,29.6 
		673.2,8.4 651.7,29.6 630.1,8.4 608.5,29.6 586.9,8.4 565.3,29.6 543.8,8.4 522.2,29.6 500.6,8.4 479,29.6 457.4,8.4 435.9,29.6 
		414.3,8.4 392.7,29.6 371.1,8.4 349.5,29.6 328,8.4 306.4,29.6 284.8,8.4 263.2,29.6 241.6,8.4 220,29.6 198.5,8.4 176.9,29.6 
		155.3,8.4 133.7,29.6 112.1,8.4 90.6,29.6 69,8.4 47.4,29.6 25.8,8.4 4.2,29.7 0,25.4 25.8,0 47.4,21.2 69,0 90.6,21.2 112.1,0 
		133.7,21.2 155.3,0 176.9,21.2 198.5,0 220,21.2 241.6,0 263.2,21.2 284.8,0 306.4,21.2 328,0 349.5,21.2 371.1,0 392.7,21.2 
		414.3,0 435.9,21.2 457.4,0 479,21.2 500.6,0 522.2,21.2 543.8,0 565.3,21.2 586.9,0 608.5,21.2 630.1,0 651.7,21.2 673.2,0 
		694.8,21.2 716.4,0 738,21.2 759.6,0 781.1,21.2 802.7,0 824.3,21.2 845.9,0 867.5,21.2 889,0 910.6,21.2 932.2,0 953.8,21.2 
		975.4,0 997,21.2 1018.5,0 1040.1,21.2 1061.7,0 1083.3,21.2 1104.9,0 1126.4,21.2 1148,0 1169.6,21.2 1191.2,0 1212.8,21.2 
		1234.3,0 1255.9,21.2 1277.5,0 1299.1,21.2 1320.7,0 1346.5,25.4 	"/>
</g>
</svg>
