<svg version="1.0" id="Layer_1" xmlns="http://www.w3.org/2000/svg" x="0" y="0" viewBox="0 0 155.8 156" xml:space="preserve"><path d="M77.9 0C68 0 58.5 1.9 49.8 5.2H106C97.3 1.9 87.8 0 77.9 0zM29.5 16.8h96.8c-2.4-1.9-4.9-3.6-7.5-5.2H37c-2.6 1.6-5.1 3.4-7.5 5.2zM17.7 28.4h120.5c-1.5-1.8-3.1-3.6-4.7-5.2h-111c-1.7 1.7-3.3 3.4-4.8 5.2zM9.8 40h136.3c-1-1.8-2.1-3.5-3.2-5.2H13c-1.2 1.7-2.2 3.4-3.2 5.2zM4.5 51.6h146.8c-.6-1.8-1.4-3.5-2.1-5.2H6.6c-.7 1.7-1.5 3.5-2.1 5.2zM1.3 63.2h153.2c-.3-1.8-.7-3.5-1.2-5.2H2.5c-.4 1.7-.8 3.5-1.2 5.2zM0 74.8h155.8c-.1-1.8-.2-3.5-.4-5.2H.4c-.2 1.7-.3 3.5-.4 5.2zm.4 11.6h155.1c.2-1.7.3-3.5.4-5.2H0c.1 1.7.2 3.5.4 5.2zM2.5 98h150.8c.5-1.7.9-3.5 1.2-5.2H1.3c.4 1.7.8 3.5 1.2 5.2zm4.1 11.6h142.6c.8-1.7 1.5-3.5 2.1-5.2H4.5c.6 1.7 1.4 3.5 2.1 5.2zm6.4 11.6h129.9c1.1-1.7 2.2-3.5 3.2-5.2H9.8c1 1.8 2 3.5 3.2 5.2zm9.4 11.6h111c1.7-1.7 3.2-3.4 4.7-5.2H17.7c1.5 1.8 3.1 3.5 4.7 5.2zM37 144.4h81.8c2.6-1.6 5.1-3.4 7.5-5.2H29.5c2.4 1.8 4.9 3.6 7.5 5.2zM77.9 156c9.9 0 19.4-1.9 28.1-5.2H49.8c8.7 3.3 18.2 5.2 28.1 5.2z" fill="#307db0"/></svg>