<svg xmlns="http://www.w3.org/2000/svg" width="41.666" height="49.999" version="1.1" viewBox="0 0 11.024 13.229" id="svg14"><g transform="translate(-176.35 -162.03)" id="g12"><g transform="matrix(.75 0 0 .75 44.087 40.506)" id="g10"><g transform="translate(175.64 162.03) scale(.35278)" id="g4"><path d="M22.833 0C11.327 0 2 9.156 2 20.448 2 31.917 11.115 39.758 22.833 50c11.719-10.242 20.833-18.083 20.833-29.552C43.666 9.156 34.336 0 22.833 0z" fill="#ff7676" id="path2" fill-opacity="1"/></g><g transform="translate(181.64 167.32) scale(.35278)" id="g8"><path d="M6 0a5.985 5.985 0 013.333 1.011 5.986 5.986 0 012.21 2.693 5.985 5.985 0 01.342 3.466 5.987 5.987 0 01-1.642 3.073 5.986 5.986 0 01-3.072 1.642 5.986 5.986 0 01-3.467-.342 5.984 5.984 0 01-2.693-2.21A5.985 5.985 0 010 6a5.985 5.985 0 011.011-3.333A5.986 5.986 0 013.704.457 5.985 5.985 0 016 0z" id="path6"/></g></g></g></svg>