<svg version="1.0" id="Layer_1" xmlns="http://www.w3.org/2000/svg" x="0" y="0" viewBox="0 0 304.6 14" xml:space="preserve"><style/><path fill="#307db0" d="M302.5 14.1l-10-9.9-10 9.8-10.1-9.8-10 9.8-10-9.8-10 9.8-10-9.8-10 9.8-10-9.8-10 9.8-10.1-9.8-10 9.8-10-9.8-10 9.8-10-9.8-10 9.8-10-9.8-10 9.8-10-9.8-10.1 9.8-10-9.8-10 9.8-10-9.8-10 9.8-10-9.8-10 9.8-10-9.8L22.1 14l-10-9.8-10 9.9L0 11.9 12.1 0l10 9.8L32.2 0l10 9.8 10-9.8 10 9.8 10-9.8 10 9.8 10-9.8 10 9.8L112.3 0l10 9.8 10-9.8 10 9.8 10-9.8 10 9.8 10-9.8 10 9.8 10-9.8 10.1 9.8 10-9.8 10 9.8 10-9.8 10 9.8 10-9.8 10 9.8 10-9.8 10.1 9.8 10-9.8 12.1 11.9z" id="Path_104"/></svg>