<svg version="1.0" id="Layer_1" xmlns="http://www.w3.org/2000/svg" x="0" y="0" viewBox="0 0 1346.5 29.6" xml:space="preserve"><style/><path fill="#307db0" d="M1342.3 29.7l-21.6-21.3-21.6 21.2-21.6-21.2-21.6 21.2-21.6-21.2-21.5 21.2-21.6-21.2-21.6 21.2L1148 8.4l-21.6 21.2-21.5-21.2-21.6 21.2-21.6-21.2-21.6 21.2-21.6-21.2L997 29.6 975.4 8.4l-21.6 21.2-21.6-21.2-21.6 21.2L889 8.4l-21.5 21.2-21.6-21.2-21.6 21.2-21.6-21.2-21.6 21.2-21.5-21.2L738 29.6 716.4 8.4l-21.6 21.2-21.6-21.2-21.5 21.2-21.6-21.2-21.6 21.2-21.6-21.2-21.6 21.2-21.5-21.2-21.6 21.2-21.6-21.2L479 29.6 457.4 8.4l-21.5 21.2-21.6-21.2-21.6 21.2-21.6-21.2-21.6 21.2L328 8.4l-21.6 21.2-21.6-21.2-21.6 21.2-21.6-21.2L220 29.6 198.5 8.4l-21.6 21.2-21.6-21.2-21.6 21.2-21.6-21.2-21.5 21.2L69 8.4 47.4 29.6 25.8 8.4 4.2 29.7 0 25.4 25.8 0l21.6 21.2L69 0l21.6 21.2L112.1 0l21.6 21.2L155.3 0l21.6 21.2L198.5 0 220 21.2 241.6 0l21.6 21.2L284.8 0l21.6 21.2L328 0l21.5 21.2L371.1 0l21.6 21.2L414.3 0l21.6 21.2L457.4 0 479 21.2 500.6 0l21.6 21.2L543.8 0l21.5 21.2L586.9 0l21.6 21.2L630.1 0l21.6 21.2L673.2 0l21.6 21.2L716.4 0 738 21.2 759.6 0l21.5 21.2L802.7 0l21.6 21.2L845.9 0l21.6 21.2L889 0l21.6 21.2L932.2 0l21.6 21.2L975.4 0 997 21.2 1018.5 0l21.6 21.2L1061.7 0l21.6 21.2L1104.9 0l21.5 21.2L1148 0l21.6 21.2L1191.2 0l21.6 21.2L1234.3 0l21.6 21.2L1277.5 0l21.6 21.2L1320.7 0l25.8 25.4z" id="Path_69"/></svg>