<svg xmlns="http://www.w3.org/2000/svg" width="699.061" height="29.664" version="1.1" viewBox="0 0 184.96 7.849" id="svg6"><g transform="translate(120.45 -35.385)" id="g4"><path d="M-119.33 42.111l5.71-5.613 5.71 5.613 5.71-5.613 5.709 5.613 5.71-5.613 5.71 5.613 5.71-5.613 5.71 5.613 5.71-5.613 5.709 5.613 5.71-5.613 5.71 5.613 5.71-5.613 5.71 5.613 5.709-5.613 5.71 5.613 5.71-5.613 5.71 5.613 5.71-5.613 5.71 5.613 5.71-5.613 5.71 5.613 5.71-5.613 5.709 5.613 5.71-5.613 5.71 5.613 5.71-5.613 5.71 5.613 5.709-5.613 5.71 5.613 5.71-5.613 5.71 5.613" fill="none" stroke="#307db0" stroke-linecap="square" stroke-width="1.587" id="path2" stroke-opacity="1"/></g></svg>